#define absolute_width 18
#define absolute_height 18
static unsigned char absolute_bits[] = {
   0xfc, 0xff, 0x00, 0x04, 0x80, 0x00, 0x04, 0x80, 0x00, 0xe4, 0x9f, 0x00,
   0x04, 0x83, 0x00, 0x04, 0x83, 0x00, 0x04, 0x83, 0x00, 0x04, 0x83, 0x00,
   0x04, 0x83, 0x00, 0x04, 0x83, 0x00, 0x04, 0x83, 0x00, 0x04, 0x83, 0x00,
   0x04, 0x83, 0x00, 0x04, 0x83, 0x00, 0xe4, 0x9f, 0x00, 0x04, 0x80, 0x00,
   0x04, 0x80, 0x00, 0xfc, 0xff, 0x00};
