#define commslack_width 18
#define commslack_height 18
static unsigned char commslack_bits[] = {
   0xe0, 0x1f, 0x00, 0xfc, 0xff, 0x00, 0x67, 0x98, 0x03, 0x67, 0x98, 0x03,
   0xc7, 0x8f, 0x03, 0x60, 0x18, 0x00, 0xb0, 0x37, 0x00, 0xb8, 0x77, 0x00,
   0xbc, 0xf7, 0x00, 0x7c, 0xf8, 0x00, 0xfc, 0xff, 0x00, 0xfc, 0xff, 0x00,
   0x00, 0x00, 0x00, 0xdc, 0xc4, 0x01, 0x48, 0x45, 0x00, 0x48, 0xc5, 0x01,
   0x48, 0x45, 0x00, 0xdc, 0xdc, 0x01};
