#define help_width 18
#define help_height 18
static unsigned char help_bits[] = {
   0xe0, 0x1f, 0x00, 0xf0, 0x3f, 0x00, 0x70, 0x38, 0x00, 0x70, 0x38, 0x00,
   0x70, 0x38, 0x00, 0x70, 0x38, 0x00, 0x00, 0x3c, 0x00, 0x00, 0x1e, 0x00,
   0x00, 0x0f, 0x00, 0x80, 0x07, 0x00, 0x80, 0x07, 0x00, 0x80, 0x07, 0x00,
   0x80, 0x07, 0x00, 0x00, 0x00, 0x00, 0x00, 0x03, 0x00, 0x80, 0x07, 0x00,
   0x80, 0x07, 0x00, 0x00, 0x03, 0x00};
