#define hrel_width 18
#define hrel_height 18
static unsigned char hrel_bits[] = {
   0x00, 0x00, 0x00, 0x00, 0x00, 0x00, 0x00, 0x00, 0x00, 0x00, 0x00, 0x00,
   0x00, 0x00, 0x00, 0x02, 0x00, 0x01, 0x05, 0x80, 0x02, 0xe8, 0x5c, 0x00,
   0x10, 0x23, 0x00, 0x10, 0x23, 0x00, 0x10, 0x23, 0x00, 0xe0, 0x1c, 0x00,
   0x00, 0x00, 0x00, 0x00, 0x00, 0x00, 0x00, 0x00, 0x00, 0x00, 0x00, 0x00,
   0x00, 0x00, 0x00, 0x00, 0x00, 0x00};
