#define jump_width 18
#define jump_height 18
static unsigned char jump_bits[] = {
   0x00, 0x00, 0x00, 0x7e, 0x00, 0x00, 0x42, 0x55, 0x01, 0x42, 0x00, 0x02,
   0x7e, 0x01, 0x00, 0x88, 0x00, 0x02, 0x08, 0x01, 0x00, 0x7e, 0x7e, 0x02,
   0x42, 0x43, 0x00, 0x42, 0x42, 0x02, 0x7e, 0x7f, 0x00, 0x00, 0x00, 0x02,
   0x00, 0x55, 0x01, 0x00, 0x00, 0x00, 0x57, 0xdb, 0x01, 0x52, 0x55, 0x01,
   0x52, 0xd1, 0x01, 0x73, 0x51, 0x00};
