#define percent_width 18
#define percent_height 18
static unsigned char percent_bits[] = {
   0x00, 0x00, 0x00, 0x38, 0x80, 0x01, 0x7c, 0xc0, 0x01, 0xfe, 0xe0, 0x00,
   0xfe, 0x70, 0x00, 0xfe, 0x38, 0x00, 0x7c, 0x1c, 0x00, 0x38, 0x0e, 0x00,
   0x00, 0x07, 0x00, 0x80, 0x03, 0x00, 0xc0, 0x71, 0x00, 0xe0, 0xf8, 0x00,
   0x70, 0xfc, 0x01, 0x38, 0xfc, 0x01, 0x1c, 0xfc, 0x01, 0x0e, 0xf8, 0x00,
   0x06, 0x70, 0x00, 0x00, 0x00, 0x00};
