#define time_width 18
#define time_height 18
static unsigned char time_bits[] = {
   0x80, 0x01, 0x00, 0x80, 0x01, 0x00, 0xe0, 0x0f, 0x00, 0xf8, 0x3f, 0x00,
   0x9c, 0x31, 0x00, 0x8c, 0x01, 0x00, 0x9c, 0x01, 0x00, 0xf8, 0x0f, 0x00,
   0xe0, 0x3f, 0x00, 0x80, 0x39, 0x00, 0x80, 0x61, 0x00, 0x80, 0x61, 0x00,
   0x8c, 0x71, 0x00, 0x9c, 0x39, 0x00, 0xf8, 0x1f, 0x00, 0xf0, 0x07, 0x00,
   0x80, 0x01, 0x00, 0x80, 0x01, 0x00};
