<?xml version="1.0" encoding="UTF-8" standalone="no"?>
<!-- Generated by graphviz version 2.24.0 (20090616.2323)
 -->

<!-- Title: shake Pages: 1 -->

<svg
   xmlns:dc="http://purl.org/dc/elements/1.1/"
   xmlns:cc="http://creativecommons.org/ns#"
   xmlns:rdf="http://www.w3.org/1999/02/22-rdf-syntax-ns#"
   xmlns:svg="http://www.w3.org/2000/svg"
   xmlns="http://www.w3.org/2000/svg"
   xmlns:sodipodi="http://sodipodi.sourceforge.net/DTD/sodipodi-0.dtd"
   xmlns:inkscape="http://www.inkscape.org/namespaces/inkscape"
   width="204pt"
   height="260pt"
   viewBox="0.00 0.00 204.00 260.00"
   id="svg3103"
   version="1.1"
   inkscape:version="0.48.0 r9654"
   sodipodi:docname="states.eps">
  <metadata
     id="metadata3219">
    <rdf:RDF>
      <cc:Work
         rdf:about="">
        <dc:format>image/svg+xml</dc:format>
        <dc:type
           rdf:resource="http://purl.org/dc/dcmitype/StillImage" />
        <dc:title></dc:title>
      </cc:Work>
    </rdf:RDF>
  </metadata>
  <defs
     id="defs3217">
    <marker
       inkscape:stockid="Arrow2Mend"
       orient="auto"
       refY="0.0"
       refX="0.0"
       id="Arrow2Mend"
       style="overflow:visible;">
      <path
         id="path3880"
         style="font-size:12.0;fill-rule:evenodd;stroke-width:0.62500000;stroke-linejoin:round;"
         d="M 8.7185878,4.0337352 L -2.2072895,0.016013256 L 8.7185884,-4.0017078 C 6.9730900,-1.6296469 6.9831476,1.6157441 8.7185878,4.0337352 z "
         transform="scale(0.6) rotate(180) translate(0,0)" />
    </marker>
    <marker
       inkscape:stockid="Arrow1Lend"
       orient="auto"
       refY="0.0"
       refX="0.0"
       id="Arrow1Lend"
       style="overflow:visible;">
      <path
         id="path3856"
         d="M 0.0,0.0 L 5.0,-5.0 L -12.5,0.0 L 5.0,5.0 L 0.0,0.0 z "
         style="fill-rule:evenodd;stroke:#000000;stroke-width:1.0pt;marker-start:none;"
         transform="scale(0.8) rotate(180) translate(12.5,0)" />
    </marker>
    <marker
       inkscape:stockid="TriangleOutL"
       orient="auto"
       refY="0.0"
       refX="0.0"
       id="TriangleOutL"
       style="overflow:visible">
      <path
         id="path4490"
         d="M 5.77,0.0 L -2.88,5.0 L -2.88,-5.0 L 5.77,0.0 z "
         style="fill-rule:evenodd;stroke:#000000;stroke-width:1.0pt;marker-start:none"
         transform="scale(0.8)" />
    </marker>
  </defs>
  <sodipodi:namedview
     pagecolor="#ffffff"
     bordercolor="#666666"
     borderopacity="1"
     objecttolerance="10"
     gridtolerance="10"
     guidetolerance="10"
     inkscape:pageopacity="0"
     inkscape:pageshadow="2"
     inkscape:window-width="1280"
     inkscape:window-height="728"
     id="namedview3215"
     showgrid="false"
     inkscape:zoom="1"
     inkscape:cx="127.5"
     inkscape:cy="165.57553"
     inkscape:window-x="-4"
     inkscape:window-y="-4"
     inkscape:window-maximized="1"
     inkscape:current-layer="svg3103" />
  <g
     class="node"
     id="node1"
     transform="translate(6.785431,325.51909)">
    <title
       id="title3111">Missing</title>
    <ellipse
       style="fill:none;stroke:#000000"
       sodipodi:ry="18"
       sodipodi:rx="40.249199"
       sodipodi:cy="-234"
       sodipodi:cx="156"
       d="m 196.2492,-234 c 0,9.94113 -18.02018,18 -40.2492,18 -22.22902,0 -40.2492,-8.05887 -40.2492,-18 0,-9.94113 18.02018,-18 40.2492,-18 22.22902,0 40.2492,8.05887 40.2492,18 z"
       id="ellipse3113"
       ry="18"
       rx="40.249199"
       cy="-234"
       cx="156" />
    <text
       style="font-size:14px;text-anchor:middle;font-family:'Times New Roman,serif'"
       id="text3115"
       font-size="14.00"
       y="-229.39999"
       x="156">Missing</text>
  </g>
  <g
     class="node"
     id="node3"
     transform="translate(11.913551,256)">
    <title
       id="title3118">Building</title>
    <ellipse
       style="fill:none;stroke:#000000"
       sodipodi:ry="18"
       sodipodi:rx="41.089802"
       sodipodi:cy="-90"
       sodipodi:cx="151"
       d="m 192.0898,-90 c 0,9.941125 -18.39653,18 -41.0898,18 -22.69327,0 -41.0898,-8.058875 -41.0898,-18 0,-9.941125 18.39653,-18 41.0898,-18 22.69327,0 41.0898,8.058875 41.0898,18 z"
       id="ellipse3120"
       ry="18"
       rx="41.089802"
       cy="-90"
       cx="151" />
    <text
       style="font-size:14px;text-anchor:middle;font-family:'Times New Roman,serif'"
       id="text3122"
       font-size="14.00"
       y="-85.400002"
       x="151">Building</text>
  </g>
  <g
     class="node"
     id="node11"
     transform="translate(-38.630209,258.27916)">
    <title
       id="title3132">Ready</title>
    <ellipse
       style="fill:none;stroke:#000000"
       sodipodi:ry="18"
       sodipodi:rx="34.882702"
       sodipodi:cy="-18"
       sodipodi:cx="57"
       d="M 91.882702,-18 C 91.882702,-8.0588745 76.265184,0 57,0 37.734816,0 22.117298,-8.0588745 22.117298,-18 c 0,-9.941125 15.617518,-18 34.882702,-18 19.265184,0 34.882702,8.058875 34.882702,18 z"
       id="ellipse3134"
       ry="18"
       rx="34.882702"
       cy="-18"
       cx="57" />
    <text
       style="font-size:14px;text-anchor:middle;font-family:'Times New Roman,serif'"
       id="text3136"
       font-size="14.00"
       y="-13.4"
       x="57">Ready</text>
  </g>
  <g
     class="edge"
     id="edge14"
     transform="matrix(0.98480776,0.17364818,-0.17364818,0.98480776,-42.156719,243.58361)">
    <title
       id="title3139">Building-&gt;Ready</title>
    <path
       style="fill:none;stroke:#000000"
       inkscape:connector-curvature="0"
       id="path3141"
       d="M 160.18584,-94.948581 C 84.868602,-39.151509 84.9453,-39.4049 84.9453,-39.4049"
       sodipodi:nodetypes="cc" />
    <polygon
       style="fill:#000000;stroke:#000000"
       id="polygon3143"
       points="82.5232,-41.9584 86.7797,-36.4013 86.7797,-36.4013 76.7126,-33.099 " />
  </g>
  <g
     class="node"
     id="node13"
     transform="translate(11.913551,257.70937)">
    <title
       id="title3146">Error</title>
    <ellipse
       style="fill:none;stroke:#000000"
       sodipodi:ry="18"
       sodipodi:rx="30.186899"
       sodipodi:cy="-18"
       sodipodi:cx="151"
       d="m 181.1869,-18 c 0,9.9411255 -13.51514,18 -30.1869,18 -16.67176,0 -30.1869,-8.0588745 -30.1869,-18 0,-9.941125 13.51514,-18 30.1869,-18 16.67176,0 30.1869,8.058875 30.1869,18 z"
       id="ellipse3148"
       ry="18"
       rx="30.186899"
       cy="-18"
       cx="151" />
    <text
       style="font-size:14px;text-anchor:middle;font-family:'Times New Roman,serif'"
       id="text3150"
       font-size="14.00"
       y="-13.4"
       x="151">Error</text>
  </g>
  <g
     class="node"
     id="node4"
     transform="translate(-23.919762,325.83021)">
    <title
       id="title3160">Loaded</title>
    <ellipse
       style="fill:none;stroke:#000000"
       sodipodi:ry="18"
       sodipodi:rx="39.0774"
       sodipodi:cy="-234"
       sodipodi:cx="42"
       d="m 81.0774,-234 c 0,9.94113 -17.495548,18 -39.0774,18 -21.581852,0 -39.0774002,-8.05887 -39.0774002,-18 0,-9.94113 17.4955482,-18 39.0774002,-18 21.581852,0 39.0774,8.05887 39.0774,18 z"
       id="ellipse3162"
       ry="18"
       rx="39.0774"
       cy="-234"
       cx="42" />
    <text
       style="font-size:14px;text-anchor:middle;font-family:'Times New Roman,serif'"
       id="text3164"
       font-size="14.00"
       y="-229.39999"
       x="42">Loaded</text>
  </g>
  <g
     class="node"
     id="node6"
     transform="translate(-28,256.56979)">
    <title
       id="title3167">Checking</title>
    <ellipse
       style="fill:none;stroke:#000000"
       sodipodi:ry="18"
       sodipodi:rx="45.788898"
       sodipodi:cy="-90"
       sodipodi:cx="46"
       d="m 91.788898,-90 c 0,9.941125 -20.500388,18 -45.788898,18 -25.28851,0 -45.78889847,-8.058875 -45.78889847,-18 0,-9.941125 20.50038847,-18 45.78889847,-18 25.28851,0 45.788898,8.058875 45.788898,18 z"
       id="ellipse3169"
       ry="18"
       rx="45.788898"
       cy="-90"
       cx="46" />
    <text
       style="font-size:14px;text-anchor:middle;font-family:'Times New Roman,serif'"
       id="text3171"
       font-size="14.00"
       y="-85.400002"
       x="46">Checking</text>
  </g>
  <g
     class="edge"
     id="edge6"
     transform="translate(11.296654,256.35167)">
    <title
       id="title3181">Checking-&gt;Building</title>
    <path
       style="fill:none;stroke:#000000"
       inkscape:connector-curvature="0"
       id="path3183"
       d="m 52.256954,-90 c 0,0 44.987946,0 47.436546,0"
       sodipodi:nodetypes="cc" />
    <polygon
       style="fill:#000000;stroke:#000000"
       id="polygon3185"
       points="99.76,-86.5001 99.7601,-93.5001 99.7601,-93.5001 109.76,-90 " />
  </g>
  <g
     class="edge"
     id="edge2-5"
     transform="matrix(0.99941496,-0.03420176,0.03420176,0.99941496,-129.38345,334.56685)">
    <title
       id="title3125-9">Missing-&gt;Building</title>
    <path
       style="fill:none;stroke:#000000"
       inkscape:connector-curvature="0"
       id="path3127-3"
       d="m 152.9494,-145.11704 c -0.853,24.561 0.0386,-2.12996 -0.9644,26.76304"
       sodipodi:nodetypes="cc" />
    <polygon
       style="fill:#000000;stroke:#000000"
       id="polygon3129-2"
       points="148.477,-118.205 155.473,-117.962 155.473,-117.962 151.628,-108.09 " />
  </g>
  <g
     class="edge"
     id="edge2-5-2"
     transform="matrix(0.99941496,-0.03420176,0.03420176,0.99941496,14.63289,333.96546)">
    <title
       id="title3125-9-0">Missing-&gt;Building</title>
    <path
       style="fill:none;stroke:#000000"
       inkscape:connector-curvature="0"
       id="path3127-3-1"
       d="m 152.9494,-145.11704 c -0.853,24.561 0.0386,-2.12996 -0.9644,26.76304"
       sodipodi:nodetypes="cc" />
    <polygon
       style="fill:#000000;stroke:#000000"
       id="polygon3129-2-1"
       points="155.473,-117.962 151.628,-108.09 148.477,-118.205 155.473,-117.962 " />
  </g>
  <g
     class="edge"
     id="edge2-5-2-2"
     transform="matrix(0.99941496,-0.03420176,0.03420176,0.99941496,14.552575,407.93799)">
    <title
       id="title3125-9-0-8">Missing-&gt;Building</title>
    <path
       style="fill:none;stroke:#000000"
       inkscape:connector-curvature="0"
       id="path3127-3-1-1"
       d="m 152.9494,-145.11704 c -0.853,24.561 0.0386,-2.12996 -0.9644,26.76304"
       sodipodi:nodetypes="cc" />
    <polygon
       style="fill:#000000;stroke:#000000"
       id="polygon3129-2-1-1"
       points="148.477,-118.205 155.473,-117.962 155.473,-117.962 151.628,-108.09 " />
  </g>
  <g
     class="edge"
     id="edge2-5-2-2-4"
     transform="matrix(0.99941496,-0.03420176,0.03420176,0.99941496,-129.44742,408.13831)">
    <title
       id="title3125-9-0-8-4">Missing-&gt;Building</title>
    <path
       style="fill:none;stroke:#000000"
       inkscape:connector-curvature="0"
       id="path3127-3-1-1-9"
       d="m 152.9494,-145.11704 c -0.853,24.561 0.0386,-2.12996 -0.9644,26.76304"
       sodipodi:nodetypes="cc" />
    <polygon
       style="fill:#000000;stroke:#000000"
       id="polygon3129-2-1-1-7"
       points="155.473,-117.962 155.473,-117.962 151.628,-108.09 148.477,-118.205 " />
  </g>
  <g
     class="edge"
     id="edge2-5-2-2-5"
     transform="matrix(0.99941496,-0.03420176,0.03420176,0.99941496,14.952575,185.73799)">
    <title
       id="title3125-9-0-8-6">Missing-&gt;Building</title>
    <path
       style="fill:none;stroke:#000000"
       inkscape:connector-curvature="0"
       id="path3127-3-1-1-3"
       d="m 152.9494,-145.11704 c -0.853,24.561 0.0386,-2.12996 -0.9644,26.76304"
       sodipodi:nodetypes="cc" />
    <polygon
       style="fill:#000000;stroke:#000000"
       id="polygon3129-2-1-1-6"
       points="148.477,-118.205 155.473,-117.962 155.473,-117.962 151.628,-108.09 " />
  </g>
  <g
     class="edge"
     id="edge2-5-2-2-5-3"
     transform="matrix(0.99941496,-0.03420176,0.03420176,0.99941496,-129.44743,185.73799)">
    <title
       id="title3125-9-0-8-6-1">Missing-&gt;Building</title>
    <path
       style="fill:none;stroke:#000000"
       inkscape:connector-curvature="0"
       id="path3127-3-1-1-3-4"
       d="m 152.9494,-145.11704 c -0.853,24.561 0.0386,-2.12996 -0.9644,26.76304"
       sodipodi:nodetypes="cc" />
    <polygon
       style="fill:#000000;stroke:#000000"
       id="polygon3129-2-1-1-6-7"
       points="155.473,-117.962 155.473,-117.962 151.628,-108.09 148.477,-118.205 " />
  </g>
  <g
     class="edge"
     id="edge2-5-1"
     transform="matrix(0.99941496,-0.03420176,0.03420176,0.99941496,-129.44743,260.53799)">
    <title
       id="title3125-9-7">Missing-&gt;Building</title>
    <path
       style="fill:none;stroke:#000000"
       inkscape:connector-curvature="0"
       id="path3127-3-4"
       d="m 152.9494,-145.11704 c -0.853,24.561 0.0386,-2.12996 -0.9644,26.76304"
       sodipodi:nodetypes="cc" />
    <polygon
       style="fill:#000000;stroke:#000000"
       id="polygon3129-2-0"
       points="148.477,-118.205 155.473,-117.962 155.473,-117.962 151.628,-108.09 " />
  </g>
  <g
     class="edge"
     id="edge2-5-2-9"
     transform="matrix(0.99941496,-0.03420176,0.03420176,0.99941496,14.552575,260.13799)">
    <title
       id="title3125-9-0-4">Missing-&gt;Building</title>
    <path
       style="fill:none;stroke:#000000"
       inkscape:connector-curvature="0"
       id="path3127-3-1-8"
       d="m 152.9494,-145.11704 c -0.853,24.561 0.0386,-2.12996 -0.9644,26.76304"
       sodipodi:nodetypes="cc" />
    <polygon
       style="fill:#000000;stroke:#000000"
       id="polygon3129-2-1-8"
       points="151.628,-108.09 148.477,-118.205 155.473,-117.962 155.473,-117.962 " />
  </g>
</svg>
