#define time_width 18
#define time_height 18
static unsigned char time_bits[] = {
   0x00, 0x00, 0x00, 0xe0, 0x0f, 0x00, 0x38, 0x38, 0x00, 0x8c, 0x61, 0x00,
   0x86, 0xc1, 0x00, 0x82, 0x81, 0x00, 0x83, 0x81, 0x01, 0x81, 0x01, 0x01,
   0x81, 0x01, 0x01, 0x81, 0x01, 0x01, 0x01, 0x03, 0x01, 0x01, 0x06, 0x01,
   0x03, 0x8c, 0x01, 0x02, 0x98, 0x00, 0x06, 0xc0, 0x00, 0x0c, 0x60, 0x00,
   0x38, 0x38, 0x00, 0xe0, 0x0f, 0x00};
