#define compress_width 18
#define compress_height 18
static unsigned char compress_bits[] = {
   0x03, 0x00, 0x03, 0x07, 0x80, 0x03, 0x0e, 0xc0, 0x01, 0x9c, 0xe4, 0x00,
   0xb8, 0x74, 0x00, 0xf0, 0x3c, 0x00, 0xe0, 0x1c, 0x00, 0xf8, 0x7c, 0x00,
   0x00, 0x00, 0x00, 0x00, 0x00, 0x00, 0xf8, 0x7c, 0x00, 0xe0, 0x1c, 0x00,
   0xf0, 0x3c, 0x00, 0xb8, 0x74, 0x00, 0x9c, 0xe4, 0x00, 0x0e, 0xc0, 0x01,
   0x07, 0x80, 0x03, 0x03, 0x00, 0x03};
