#define delete_width 18
#define delete_height 18
static unsigned char delete_bits[] = {
   0xc0, 0x0f, 0x00, 0xe0, 0x1f, 0x00, 0xf0, 0x3f, 0x00, 0x38, 0x73, 0x00,
   0x38, 0x73, 0x00, 0xf8, 0x7f, 0x00, 0xf8, 0x7f, 0x00, 0xf0, 0x3f, 0x00,
   0xe0, 0x1f, 0x00, 0x80, 0x07, 0x00, 0x8c, 0xc7, 0x00, 0x0c, 0xc0, 0x00,
   0x70, 0x38, 0x00, 0x80, 0x07, 0x00, 0x70, 0x38, 0x00, 0x0c, 0xc0, 0x00,
   0x0c, 0xc0, 0x00, 0x00, 0x00, 0x00};
