#define hrelslack_width 18
#define hrelslack_height 18
static unsigned char hrelslack_bits[] = {
   0x33, 0x00, 0x00, 0x33, 0x00, 0x00, 0x33, 0x00, 0x00, 0x33, 0x00, 0x00,
   0xbf, 0xbb, 0x00, 0xbf, 0x8a, 0x00, 0xb3, 0xba, 0x00, 0xb3, 0x89, 0x00,
   0xb3, 0xba, 0x03, 0x00, 0x00, 0x00, 0xfc, 0xff, 0x00, 0x00, 0x00, 0x00,
   0x00, 0x00, 0x00, 0xdc, 0xc4, 0x01, 0x48, 0x45, 0x00, 0x48, 0xc5, 0x01,
   0x48, 0x45, 0x00, 0xdc, 0xdc, 0x01};
